<?xml version="1.0" encoding="UTF-8"?>
<svg width="752pt" height="752pt" version="1.1" viewBox="0 0 752 752" xmlns="http://www.w3.org/2000/svg">
 <defs>
  <clipPath id="a">
   <path d="m139.21 261h473.58v230h-473.58z"/>
  </clipPath>
 </defs>
 <g clip-path="url(#a)">
  <path d="m168.36 393.27v86.266c0 6.0117 4.875 10.883 10.883 10.883 6.0117 0 10.883-4.8711 10.883-10.883v-79.461h4.0781v79.461c0 6.0117 4.875 10.883 10.883 10.883 6.0117 0 10.883-4.8711 10.883-10.883v-102.94l0.003906-38.551c3.5039-1.8281 8.293-5.082 12.992-10.711 3.3086-3.9453 6.5-9.0156 9.1602-15.43 2.6602 6.4141 5.8477 11.484 9.1562 15.43 4.6992 5.6289 9.4922 8.8828 12.996 10.711v141.49c0 6.0117 4.875 10.883 10.883 10.883 6.0117 0 10.883-4.8711 10.883-10.883v-79.461h4.0781v79.461c0 6.0117 4.875 10.883 10.883 10.883 6.0117 0 10.883-4.8711 10.883-10.883v-102.94l0.003906-38.551c3.5039-1.8281 8.293-5.082 12.996-10.711 3.3086-3.9453 6.4961-9.0156 9.1562-15.43 2.6602 6.4141 5.8477 11.484 9.1562 15.43 4.6992 5.6289 9.4922 8.8828 12.992 10.711v141.49c0 6.0117 4.875 10.883 10.883 10.883 6.0117 0 10.883-4.8711 10.883-10.883v-79.461h4.0781v79.461c0 6.0117 4.875 10.883 10.883 10.883 6.0117 0 10.883-4.8711 10.883-10.883v-102.94l0.007813-38.551c3.5039-1.8281 8.293-5.082 12.992-10.711 3.3086-3.9453 6.5-9.0195 9.1602-15.43 2.6602 6.4141 5.8477 11.484 9.1562 15.434 4.6992 5.6289 9.4922 8.8828 12.996 10.711v141.49c0 6.0117 4.875 10.883 10.883 10.883 6.0117 0 10.883-4.8711 10.883-10.883v-79.461h4.0781v79.461c0 6.0117 4.875 10.883 10.883 10.883 6.0117 0 10.883-4.8711 10.883-10.883v-141.49c3.5-1.8281 8.293-5.082 12.992-10.711 3.3086-3.9453 6.5-9.0195 9.1562-15.43 2.6602 6.4141 5.8477 11.484 9.1562 15.434 4.6992 5.6289 9.4922 8.8828 12.992 10.711v141.49c0 6.0117 4.875 10.883 10.883 10.883 6.0117 0 10.883-4.8711 10.883-10.883v-79.461h4.0781v79.461c0 6.0117 4.875 10.883 10.883 10.883 6.0117 0 10.883-4.8711 10.883-10.883v-102.94l0.011719-38.555c3.5-1.8281 8.293-5.082 12.996-10.711 8.4805-10.117 16.188-27.57 16.152-56.254 0-0.84766-0.007812-1.707-0.019531-2.5625-0.054687-3.8906-3.2539-6.9961-7.1445-6.9375-3.8906 0.058594-6.9961 3.2539-6.9375 7.1445 0.011719 0.80078 0.019531 1.5859 0.019531 2.3555-0.035156 26.289-6.8438 39.961-12.879 47.227-3.043 3.6406-5.9727 5.7227-8.0469 6.9023-0.91797 0.51953-1.6523 0.84766-2.1602 1.0547h-31.566c-1.8516-0.75-6.918-3.2344-11.895-10.129-5.5273-7.6992-11.176-21.188-11.195-45.055 0-0.77734 0.003906-1.5586 0.019531-2.3398 0.0625-3.7656-2.8398-6.8828-6.5508-7.1367h-0.003906c-0.12109-0.007813-0.24219-0.023438-0.36719-0.023438-0.054688 0-0.10938 0.003907-0.16406 0.003907-0.0625 0-0.125-0.007813-0.1875-0.007813-3.8867 0.058594-6.9961 3.2539-6.9375 7.1445 0.011718 0.79688 0.019531 1.5859 0.019531 2.3555-0.035157 26.285-6.8438 39.961-12.879 47.227-3.043 3.6406-5.9727 5.7266-8.0469 6.9023-0.91797 0.51953-1.6523 0.84766-2.1602 1.0547h-31.57c-1.8555-0.75391-6.918-3.2422-11.891-10.125-5.5273-7.6992-11.176-21.188-11.195-45.055 0-0.77734 0.003907-1.5586 0.019531-2.3398 0.066407-3.8906-3.0312-7.0938-6.918-7.1602-0.066406 0-0.12891 0.007813-0.19531 0.007813-0.054687 0-0.10547-0.007813-0.16016-0.003906-0.11719 0-0.23047 0.015624-0.34375 0.023437h-0.035156c-3.707 0.25-6.6172 3.3555-6.5625 7.1172 0.011719 0.80078 0.019531 1.5859 0.019531 2.3555-0.035156 26.289-6.8438 39.961-12.883 47.227-3.043 3.6406-5.9727 5.7266-8.0469 6.9023-0.91797 0.51953-1.6523 0.84766-2.1602 1.0547h-31.574c-1.8555-0.75391-6.918-3.2422-11.891-10.125-5.5273-7.6992-11.176-21.188-11.195-45.055 0-0.77734 0.003906-1.5586 0.019531-2.3398 0.066407-3.8906-3.0312-7.0938-6.918-7.1602-0.066406 0-0.12891 0.007812-0.19531 0.007812-0.054688 0-0.10547-0.007812-0.16016-0.003906-0.11719 0-0.23047 0.015625-0.34375 0.023437h-0.035156c-3.707 0.25-6.6133 3.3555-6.5586 7.1172 0.011718 0.80078 0.019531 1.5859 0.019531 2.3555-0.03125 26.289-6.8438 39.961-12.879 47.227-3.043 3.6406-5.9727 5.7266-8.0469 6.9023-0.91797 0.51953-1.6523 0.84766-2.1562 1.0547h-31.574c-1.8555-0.75391-6.918-3.2422-11.891-10.125-5.5273-7.6992-11.176-21.188-11.195-45.055 0-0.77734 0.003906-1.5586 0.019531-2.3398 0.066406-3.8906-3.0312-7.0938-6.918-7.1602-0.066406 0-0.12891 0.007812-0.19531 0.007812-0.054688 0-0.10547-0.007812-0.16016-0.003906-0.11719 0-0.23047 0.015625-0.34375 0.023438h-0.035156c-3.707 0.25-6.6172 3.3555-6.5625 7.1172 0.011719 0.80078 0.019531 1.5859 0.019531 2.3555-0.035156 26.289-6.8438 39.961-12.883 47.227-3.043 3.6406-5.9727 5.7266-8.0469 6.9023-0.91797 0.51953-1.6523 0.84766-2.1562 1.0547h-31.574c-1.8555-0.75391-6.918-3.2422-11.891-10.125-5.5195-7.7109-11.168-21.199-11.188-45.066 0-0.77734 0.003906-1.5586 0.019531-2.3398 0.066406-3.8906-3.0312-7.0938-6.918-7.1602-3.8945-0.066406-7.0977 3.0312-7.168 6.9219-0.011719 0.875-0.019531 1.7383-0.019531 2.5781-0.035157 28.688 7.6719 46.137 16.156 56.258 4.6992 5.6289 9.4922 8.8828 12.992 10.711z"/>
 </g>
 <path d="m211.97 301.44c0 10.941-8.8672 19.809-19.805 19.809-10.941 0-19.809-8.8672-19.809-19.809 0-10.938 8.8672-19.805 19.809-19.805 10.938 0 19.805 8.8672 19.805 19.805"/>
 <path d="m303.89 301.44c0 10.941-8.8672 19.809-19.805 19.809-10.941 0-19.809-8.8672-19.809-19.809 0-10.938 8.8672-19.805 19.809-19.805 10.938 0 19.805 8.8672 19.805 19.805"/>
 <path d="m395.81 301.44c0 10.941-8.8672 19.809-19.805 19.809-10.941 0-19.809-8.8672-19.809-19.809 0-10.938 8.8672-19.805 19.809-19.805 10.938 0 19.805 8.8672 19.805 19.805"/>
 <path d="m487.73 301.44c0 10.941-8.8672 19.809-19.805 19.809-10.941 0-19.809-8.8672-19.809-19.809 0-10.938 8.8672-19.805 19.809-19.805 10.938 0 19.805 8.8672 19.805 19.805"/>
 <path d="m579.64 301.44c0 10.941-8.8672 19.809-19.809 19.809-10.938 0-19.805-8.8672-19.805-19.809 0-10.938 8.8672-19.805 19.805-19.805 10.941 0 19.809 8.8672 19.809 19.805"/>
</svg>
